Coordinates
version=1
nRows=26
nColumns=24
inDegrees=yes

Units are S.I. units (second, meters, Newtons, ...)
Angles are in degrees.

endheader
time	pelvis_tilt	pelvis_list	pelvis_rotation	pelvis_tx	pelvis_ty	pelvis_tz	hip_flexion_r	hip_adduction_r	hip_rotation_r	knee_angle_r	ankle_angle_r	subtalar_angle_r	mtp_angle_r	hip_flexion_l	hip_adduction_l	hip_rotation_l	knee_angle_l	ankle_angle_l	subtalar_angle_l	mtp_angle_l	lumbar_extension	lumbar_bending	lumbar_rotation
      1.58750000	      5.12786462	      6.03312456	     -3.67350028	      0.40543788	      1.07684164	      0.30945462	     12.25004060	     -7.69300799	      2.21805457	    -61.17953422	      0.25165220	    -12.46241343	     13.25316755	     -1.77002547	     12.04458411	     -1.93128141	     -1.60935305	     -4.34127230	     -6.68631153	      4.98533954	     -0.28366410	     -4.16049757	      1.41301918
      1.59166667	      5.14866404	      6.08847129	     -3.55656829	      0.41005173	      1.07718436	      0.30931776	     12.72657048	     -7.70036772	      2.33434688	    -60.80095650	      0.65739401	    -12.87127138	     13.15147718	     -2.19891671	     12.12025797	     -1.76952295	     -1.38237318	     -4.25285669	     -6.63082472	      4.95204154	     -0.32317130	     -4.22421976	      1.29749778
      1.59583333	      5.13673689	      6.11484486	     -3.44261563	      0.41469252	      1.07748683	      0.30928824	     13.21776752	     -7.65847359	      2.48574602	    -60.35225564	      0.91114315	    -13.09667689	     13.09808772	     -2.59747789	     12.14872221	     -1.64058375	     -1.15270099	     -4.20006739	     -6.57983354	      4.93490560	     -0.38292218	     -4.27530950	      1.23056086
      1.60000000	      5.20771647	      6.15845297	     -3.23135447	      0.41924563	      1.07788498	      0.30895153	     13.59100653	     -7.69088988	      2.45978399	    -59.88256320	      1.22054355	    -13.83832763	     12.44262225	     -3.08756715	     12.21350823	     -1.37848594	     -0.93436969	     -4.05081997	     -6.53733945	      4.68950459	     -0.43295579	     -4.38886535	      0.57344614
      1.60416667	      5.19282444	      6.21089097	     -3.15489690	      0.42383174	      1.07809832	      0.30893366	     14.08610115	     -7.67920463	      2.64123453	    -59.38227526	      1.48146456	    -13.94594204	     12.39474099	     -3.48565699	     12.27488964	     -1.25550331	     -0.67743210	     -4.01868006	     -6.47543017	      4.67282581	     -0.47116427	     -4.43651172	      0.56694458
      1.60833333	      5.18868051	      6.26889459	     -3.07009501	      0.42842829	      1.07829932	      0.30884229	     14.55515616	     -7.68556495	      2.79742349	    -58.85658134	      1.82350362	    -14.11971468	     12.33958308	     -3.90148276	     12.34759325	     -1.10494303	     -0.41749029	     -3.95953461	     -6.41824004	      4.65356751	     -0.47486353	     -4.49659504	      0.55057691
      1.61250000	      5.18672830	      6.34422887	     -2.94375464	      0.43296903	      1.07846803	      0.30861025	     15.01034360	     -7.73364783	      2.88069300	    -58.31862606	      2.29533994	    -14.38045969	     12.22668504	     -4.31277765	     12.44589759	     -0.93070180	     -0.17033408	     -3.85267064	     -6.38593382	      4.61075308	     -0.44107751	     -4.55056539	      0.49516999
      1.61666667	      5.16722986	      6.40262139	     -2.83653605	      0.43754268	      1.07860480	      0.30852808	     15.46746121	     -7.74253609	      3.00692152	    -57.71261309	      2.56533475	    -14.52800148	     12.12096491	     -4.71389795	     12.51006505	     -0.76047976	      0.09139270	     -3.78221440	     -6.34601448	      4.56920064	     -0.44365813	     -4.61189278	      0.42499440
      1.62083333	      5.14144601	      6.46199627	     -2.73112437	      0.44211251	      1.07870892	      0.30844004	     15.91870818	     -7.75590689	      3.12734376	    -57.06297084	      2.79687300	    -14.64830359	     12.02679771	     -5.10782347	     12.57481245	     -0.60127288	      0.35789217	     -3.71823848	     -6.30709966	      4.53128681	     -0.43218035	     -4.67143474	      0.35436010
      1.62500000	      5.12335497	      6.51947271	     -2.62696479	      0.44668241	      1.07879453	      0.30835842	     16.34860564	     -7.76739245	      3.24602224	    -56.37974732	      3.00467500	    -14.74998949	     11.93547447	     -5.51212901	     12.63675672	     -0.44155736	      0.62223613	     -3.65244756	     -6.27252337	      4.49357995	     -0.42705847	     -4.73536228	      0.27952437
      1.62916667	      5.07790006	      6.56928521	     -2.52179473	      0.45123266	      1.07881951	      0.30833213	     16.79493178	     -7.76288805	      3.37391565	    -55.64949297	      3.12819950	    -14.79775828	     11.89269961	     -5.87560632	     12.68162733	     -0.35133914	      0.86596583	     -3.61135703	     -6.24087140	      4.47616844	     -0.47290664	     -4.79780905	      0.24158771
      1.63333333	      5.04963789	      6.63700843	     -2.44255040	      0.45579091	      1.07881992	      0.30829885	     17.21985650	     -7.77922889	      3.51434223	    -54.89715163	      3.26878496	    -14.85620905	     11.84411261	     -6.26798684	     12.75178824	     -0.20630092	      1.13838767	     -3.55621476	     -6.19451251	      4.45632091	     -0.46148389	     -4.87245574	      0.19732265
      1.63750000	      5.02915240	      6.71138797	     -2.34674740	      0.46035740	      1.07879783	      0.30816685	     17.62074700	     -7.82038665	      3.61081340	    -54.11869022	      3.42778907	    -14.92666145	     11.74635312	     -6.67673343	     12.83365926	      0.00317976	      1.41991533	     -3.45943832	     -6.16238164	      4.41318159	     -0.37586886	     -4.94138777	      0.10189951
      1.64166667	      4.98485100	      6.77422433	     -2.25385059	      0.46490264	      1.07872482	      0.30812536	     18.03330105	     -7.83608858	      3.72357941	    -53.29838040	      3.50242275	    -14.95212864	     11.66156095	     -7.04822562	     12.89320703	      0.14877072	      1.67758228	     -3.39474326	     -6.13994773	      4.37417099	     -0.35947209	     -5.01611172	      0.01932539
      1.64583333	      4.92880050	      6.83860392	     -2.16606549	      0.46945502	      1.07860624	      0.30813658	     18.44458427	     -7.84712998	      3.84598778	    -52.43052482	      3.55455152	    -14.96281708	     11.61819050	     -7.39788391	     12.94948410	      0.23286144	      1.91970854	     -3.35068930	     -6.11289722	      4.35449055	     -0.38936335	     -5.09483120	     -0.01983224
      1.65000000	      4.88546746	      6.91335982	     -2.09542008	      0.47402062	      1.07846351	      0.30812806	     18.83604551	     -7.87276634	      3.97133906	    -51.54706747	      3.58213612	    -14.96802093	     11.57449035	     -7.76824370	     13.02161675	      0.34696018	      2.17565932	     -3.29796718	     -6.07365825	      4.33474370	     -0.37024209	     -5.17707055	     -0.05777370
      1.65416667	      4.86047388	      6.99277590	     -2.02813182	      0.47859062	      1.07830687	      0.30804860	     19.19667531	     -7.91574629	      4.06412769	    -50.62699250	      3.53017318	    -14.96114719	     11.48373711	     -8.16829269	     13.10470067	      0.53565482	      2.45648230	     -3.20027415	     -6.03469817	      4.29108599	     -0.26180599	     -5.26275734	     -0.14097049
      1.65833333	      4.78356393	      7.06650593	     -1.95155789	      0.48316373	      1.07805640	      0.30806404	     19.59839127	     -7.93816277	      4.15979285	    -49.68480552	      3.54540745	    -14.96102034	     11.45231215	     -8.48708597	     13.17154221	      0.58143069	      2.68578442	     -3.15787344	     -6.01188103	      4.27624690	     -0.31378559	     -5.34606395	     -0.16609946
      1.66250000	      4.75569238	      7.14423424	     -1.89270439	      0.48769321	      1.07783498	      0.30809844	     19.93504907	     -7.96447413	      4.28812173	    -48.69400170	      3.43994757	    -14.94340385	     11.38203337	     -8.86958486	     13.23996576	      0.74688346	      2.92656670	     -3.07322062	     -5.95993357	      4.24200257	     -0.20702683	     -5.43704578	     -0.22156792
      1.66666667	      4.69728597	      7.22914865	     -1.82635154	      0.49226510	      1.07754045	      0.30810399	     20.29111574	     -8.00377511	      4.37949858	    -47.68437181	      3.33874326	    -14.93085304	     11.31599514	     -9.21054873	     13.31785018	      0.85211002	      3.15332382	     -2.99282555	     -5.92139213	      4.20881010	     -0.17158117	     -5.53227848	     -0.27102419
      1.67083333	      4.64683668	      7.31040628	     -1.77261157	      0.49687673	      1.07722136	      0.30803135	     20.63119186	     -8.04938915	      4.42972271	    -46.65546202	      3.15845371	    -14.91695701	     11.22307901	     -9.56604123	     13.40149825	      0.97365206	      3.40234763	     -2.88568098	     -5.87103213	      4.16066838	     -0.09454751	     -5.62436109	     -0.33739282
      1.67500000	      4.56490978	      7.39945502	     -1.71591582	      0.50143715	      1.07682107	      0.30809487	     20.99322725	     -8.08542155	      4.51767406	    -45.60804792	      3.13226713	    -14.91319590	     11.18818433	     -9.86150422	     13.48022183	      1.00801581	      3.59171157	     -2.83542050	     -5.84183033	      4.14307345	     -0.13333562	     -5.72108485	     -0.35373095
      1.67916667	      4.49721186	      7.48130511	     -1.62429117	      0.50601903	      1.07643950	      0.30801224	     21.31297399	     -8.14133841	      4.53342091	    -44.49899637	      2.73506541	    -14.91649759	     11.00736204	    -10.18255382	     13.55130476	      1.15532309	      3.78537349	     -2.64607957	     -5.75137348	      4.04473210	     -0.01673609	     -5.77861219	     -0.46978150
      1.68333333	      4.43163603	      7.57411415	     -1.61056297	      0.51061419	      1.07598431	      0.30807689	     21.64382875	     -8.17787834	      4.60945797	    -43.41618569	      2.72684123	    -14.91420593	     10.96733258	    -10.49834988	     13.64348307	      1.19592072	      3.99777570	     -2.60260650	     -5.70447041	      4.02345979	     -0.00442204	     -5.91355000	     -0.47164582
      1.68750000	      4.37745698	      7.66091828	     -1.58611399	      0.51523788	      1.07553053	      0.30813145	     21.93725230	     -8.21444064	      4.66752585	    -42.29066772	      2.60212198	    -14.87337357	     10.91601436	    -10.82580530	     13.72527522	      1.26330099	      4.19458817	     -2.51632859	     -5.64309492	      3.99657278	      0.05851351	     -6.04080657	     -0.47389853
      1.69166667	      4.31010434	      7.75309580	     -1.54821089	      0.51980345	      1.07503686	      0.30820981	     22.23265644	     -8.25617037	      4.72846061	    -41.14300422	      2.47792086	    -14.82791494	     10.87418377	    -11.12175539	     13.80627269	      1.31646669	      4.35055794	     -2.42644872	     -5.59060370	      3.97504327	      0.08752946	     -6.14895719	     -0.47362142
